<svg width="72" height="70" viewBox="0 0 72 70" fill="none" xmlns="http://www.w3.org/2000/svg">
<path d="M30.741 45.2786C24.4219 45.1842 11.7837 45.1653 11.7837 45.8453M11.7837 45.8453C9.86048 45.4675 6.06901 45.3353 6.28881 47.8285M11.7837 45.8453C12.6079 47.1674 14.9707 49.6418 17.8281 48.9618C20.6854 48.2818 23.2314 48.3007 24.1472 48.3952M6.28881 47.8285C5.00668 47.6396 2.71717 47.8852 3.81615 50.3784M6.28881 47.8285C7.57094 48.2063 10.4649 49.2451 11.7837 50.3784C13.4322 51.7951 17.2786 52.0784 19.2018 51.2284C20.7404 50.5484 23.5061 50.3784 24.6967 50.3784M3.81615 50.3784C2.99191 50.284 1.34343 50.7184 1.34343 53.2117M3.81615 50.3784C4.82353 50.5673 7.00315 51.1718 7.66254 52.0784C8.48677 53.2117 16.4543 55.195 19.2018 53.7783C21.3997 52.645 25.2462 52.1728 26.8946 52.0784M1.34343 53.2117C1.34343 54.0617 -0.0302897 56.0449 2.71715 56.8949M1.34343 53.2117C2.53399 53.3061 5.07995 53.7783 5.73933 54.9116C6.56356 56.3283 14.2564 57.1782 16.7291 56.0449C18.7072 55.1383 21.7661 54.9116 23.0482 54.9116M2.71715 56.8949C2.80873 57.8393 3.70623 59.3315 6.56356 57.7449M2.71715 56.8949C2.80873 57.8393 3.54138 59.9548 5.73933 60.8615C7.6933 61.6675 10.759 64.0498 13.1574 65.2568M6.56356 57.7449C7.29621 58.9726 9.25605 60.9181 11.2342 58.8782M6.56356 57.7449C7.93728 60.014 11.1793 64.6931 13.1574 65.2568M11.2342 58.8782C12.3332 57.7449 13.9816 62.8447 21.125 60.2948M11.2342 58.8782C12.4248 60.8919 15.1905 65.2218 16.7291 66.432M21.125 60.2948C23.3229 59.1615 25.8872 60.5781 26.8946 61.4281C27.7188 61.7114 29.8069 61.9948 31.5653 60.8615M21.125 60.2948C21.5829 62.5614 22.9383 67.378 24.6967 68.5113M31.5653 60.8615C32.8448 60.0368 34.2989 60.6624 35.3135 61.4281M31.5653 60.8615C32.0232 62.9392 33.1588 67.2646 34.038 67.9446M44.4782 61.4281C43.9287 60.5781 42.555 59.7282 41.1813 60.8615C39.2031 62.9014 37.0601 62.6559 36.2359 62.2781C36.0115 62.0209 35.6933 61.7147 35.3135 61.4281M44.4782 61.4281C45.0277 62.2781 47.5004 62.8447 50.5226 59.4448M44.4782 61.4281C44.4782 62.8447 44.1485 65.848 42.8298 66.528M50.5226 59.4448C50.5226 58.1227 50.4127 55.365 49.9731 54.9116M50.5226 59.4448C51.2192 58.7265 51.8954 58.5035 52.4458 58.5087M53.5448 58.8782C52.9037 57.3671 51.6216 54.1183 51.6216 53.2117M53.5448 58.8782C53.3287 58.7 52.9374 58.5133 52.4458 58.5087M53.5448 58.8782C54.4466 59.0642 56.0116 59.1281 57.1669 58.5087M58.4902 56.8949C59.5891 56.8949 62.0618 56.6116 63.1608 55.4783C64.1752 54.4323 67.2867 53.8497 67.5179 52.3617M58.4902 56.8949C57.1164 56.3283 54.369 54.7983 54.369 53.2117C54.369 51.6251 53.0869 51.2284 52.4458 51.2284M58.4902 56.8949C58.2637 57.6735 57.7713 58.1846 57.1669 58.5087M68.9304 27.7124C71.9526 28.5624 70.8536 31.9623 70.5789 35.6455C70.3042 39.3288 61.7871 41.5954 59.3144 41.0287C57.3362 40.5754 53.3616 42.3509 51.6216 43.2953C51.0721 44.1453 50.1929 46.0719 51.0721 46.9785C52.1711 48.1118 55.468 47.8285 58.7649 48.9618C63.985 48.6785 63.1608 49.5285 66.4577 50.3784C67.3202 51.1938 67.5998 51.8346 67.5179 52.3617M68.9304 27.7124C69.7547 25.8236 70.3042 21.9326 65.9082 21.4793M68.9304 27.7124L60.9629 34.7956C59.8639 36.2122 57.3362 38.9321 56.0175 38.4788C54.6987 38.0255 50.7058 40.5565 48.8741 41.8787M65.9082 21.4793C65.8167 20.2515 65.2489 17.6827 63.7103 17.2294C62.1717 16.7761 60.6881 14.9628 60.1386 14.1128M65.9082 21.4793C60.5965 27.5236 49.6434 39.6121 48.3246 39.6121M60.1386 14.1128C58.9481 11.2796 55.5779 6.12307 51.6216 8.16301M60.1386 14.1128C58.2154 16.7572 54.369 22.9526 54.369 26.5791C54.369 30.2057 48.691 36.0233 45.8519 38.4788M51.6216 8.16301C51.0721 8.16301 48.3246 1.3632 42.555 3.06315C39.6977 3.74313 38.617 3.34648 38.4339 3.06315M51.6216 8.16301C50.8889 9.48519 49.5885 12.9229 50.2478 16.0961C51.0721 20.0627 46.6762 32.8123 43.9287 36.4955M38.4339 3.06315C37.3349 2.21318 34.8622 0.626554 33.7632 1.07987C32.6642 1.53319 30.5579 2.59094 29.6421 3.06315M38.4339 3.06315C42.0055 8.25745 47.6653 22.3293 41.7308 37.0622M29.6421 3.06315C29.001 2.21318 27.2793 0.626553 25.5209 1.07987C23.3229 1.64653 19.2018 4.19645 18.927 3.6298M29.6421 3.06315C34.679 8.8241 43.7639 23.6892 39.8076 37.0622M18.927 3.6298C18.6523 3.06315 12.8827 2.21318 10.6847 5.8964M18.927 3.6298C18.5607 4.10201 18.2127 5.21642 19.7513 5.8964C21.6745 6.74638 37.8844 19.496 37.8844 33.6623M10.6847 5.8964C10.6847 6.17973 6.28881 6.17972 6.28881 10.1463M10.6847 5.8964C11.051 7.12414 12.2233 9.57963 13.9816 9.57963C16.1796 9.57963 35.6864 24.0292 37.0601 36.4955M6.28881 10.1463C5.46459 11.5629 3.81615 14.6795 3.81615 15.8128M6.28881 10.1463C7.66253 11.8462 10.7946 15.1895 12.3332 14.9628C14.2564 14.6795 34.5874 29.6957 34.8622 36.4955M3.81615 15.8128C3.54141 16.4739 3.15678 18.0227 3.81615 18.9294C3.78235 19.6437 3.8003 20.5149 3.89483 21.4793M3.81615 15.8128C4.73195 15.8128 6.83831 16.2661 7.93728 18.0794C9.03626 19.8927 13.5237 21.1015 15.6301 21.4793C20.4839 23.3681 30.6311 29.0157 32.3895 36.4955M32.3895 41.8787C31.84 38.4788 20.3008 37.9121 11.7837 34.2289C7.04496 32.1796 4.95518 27.4535 4.18347 23.4626M24.6967 68.5113C27.0778 68.9835 32.2796 69.5312 34.038 67.9446M24.6967 68.5113C22.8256 68.7042 19.0964 67.4052 16.7291 66.432M34.038 67.9446C36.4191 68.7001 41.511 69.4746 42.8298 66.528M42.8298 66.528C44.6614 67.2835 48.6543 68.0579 49.9731 65.1113M49.9731 65.1113C51.8963 65.2058 55.9076 64.998 56.567 63.4114M49.9731 65.1113C50.8523 64.4314 51.9879 60.4263 52.4458 58.5087M56.567 63.4114C58.2154 62.467 61.5673 60.3515 61.7871 59.4448C64.4171 57.8545 69.2452 54.2115 67.5179 52.3617M56.567 63.4114C57.4461 62.6297 57.3332 59.8172 57.1669 58.5087M67.5179 52.3617C65.6992 53.3061 61.5123 54.7983 59.3144 53.2117C57.1164 51.6251 54.1858 50.6618 52.9953 50.3784M4.18347 23.4626C5.43474 25.1625 8.59667 28.6191 11.2342 28.8457C14.5311 29.1291 26.3451 33.1984 28.2683 36.4955M4.18347 23.4626C4.05027 22.7737 3.95634 22.1068 3.89483 21.4793M3.89483 21.4793C4.87599 22.707 7.33286 25.1625 9.311 25.1625C11.7837 25.1625 28.0441 29.6276 30.1915 35.6455M15.6301 58.3115C19.7513 58.1227 28.5431 57.1782 30.741 54.9116M26.8946 59.4448C28.3599 59.6337 31.5103 59.3882 32.3895 56.8949M35.3135 61.4281C35.8957 61.2392 37.225 60.4648 37.8844 58.8782M13.1574 65.2568C14.1314 65.7469 14.9953 66.0432 15.6301 65.9613C15.9434 66.1018 16.3155 66.2619 16.7291 66.432" stroke="#B38934" stroke-linecap="round" stroke-linejoin="round"/>
<path d="M37.0071 38.1832C33.6542 38.922 31.9295 41.3008 30.7204 44.6474C29.4525 48.1571 29.6088 51.0679 31.6185 54.1899C34.5932 58.8108 43.2937 57.8838 45.0899 57.2681C46.886 56.6525 51.9752 50.8039 50.179 44.6474C48.3829 38.491 41.1981 37.2597 37.0071 38.1832Z" fill="#996C50"/>
<ellipse cx="29.0928" cy="46.9786" rx="0.549488" ry="0.56665" fill="url(#paint0_linear_35_193)"/>
<ellipse cx="27.9936" cy="47.5452" rx="0.549488" ry="0.56665" fill="url(#paint1_linear_35_193)"/>
<ellipse cx="26.8949" cy="46.9786" rx="0.549488" ry="0.56665" fill="url(#paint2_linear_35_193)"/>
<ellipse cx="23.5976" cy="46.4119" rx="0.549488" ry="0.56665" fill="url(#paint3_linear_35_193)"/>
<ellipse cx="29.0928" cy="49.8118" rx="0.549488" ry="0.56665" fill="url(#paint4_linear_35_193)"/>
<ellipse cx="26.3451" cy="49.2451" rx="0.549488" ry="0.56665" fill="url(#paint5_linear_35_193)"/>
<ellipse cx="28.543" cy="52.0784" rx="0.549488" ry="0.56665" fill="url(#paint6_linear_35_193)"/>
<ellipse cx="25.2461" cy="53.7783" rx="0.549488" ry="0.56665" fill="url(#paint7_linear_35_193)"/>
<ellipse cx="25.2461" cy="55.4783" rx="0.549488" ry="0.56665" fill="url(#paint8_linear_35_193)"/>
<ellipse cx="27.444" cy="55.4783" rx="0.549488" ry="0.56665" fill="url(#paint9_linear_35_193)"/>
<ellipse cx="29.0928" cy="54.9117" rx="0.549488" ry="0.56665" fill="url(#paint10_linear_35_193)"/>
<ellipse cx="29.6419" cy="53.2117" rx="0.549488" ry="0.56665" fill="url(#paint11_linear_35_193)"/>
<ellipse cx="31.2906" cy="56.0449" rx="0.549488" ry="0.56665" fill="url(#paint12_linear_35_193)"/>
<ellipse cx="30.1916" cy="57.1783" rx="0.549488" ry="0.56665" fill="url(#paint13_linear_35_193)"/>
<ellipse cx="32.3895" cy="59.4448" rx="0.549488" ry="0.56665" fill="url(#paint14_linear_35_193)"/>
<ellipse cx="38.9834" cy="60.5781" rx="0.549488" ry="0.56665" fill="url(#paint15_linear_35_193)"/>
<ellipse cx="39.5329" cy="58.8782" rx="0.549488" ry="0.56665" fill="url(#paint16_linear_35_193)"/>
<ellipse cx="35.6863" cy="58.8782" rx="0.549488" ry="0.56665" fill="url(#paint17_linear_35_193)"/>
<ellipse cx="44.478" cy="58.3115" rx="0.549488" ry="0.56665" fill="url(#paint18_linear_35_193)"/>
<ellipse cx="42.2801" cy="58.3115" rx="0.549488" ry="0.56665" fill="url(#paint19_linear_35_193)"/>
<ellipse cx="46.1266" cy="60.5781" rx="0.549488" ry="0.56665" fill="url(#paint20_linear_35_193)"/>
<ellipse cx="47.2256" cy="57.1783" rx="0.549488" ry="0.56665" fill="url(#paint21_linear_35_193)"/>
<ellipse cx="48.8743" cy="57.7449" rx="0.549488" ry="0.56665" fill="url(#paint22_linear_35_193)"/>
<ellipse cx="51.0723" cy="55.4783" rx="0.549488" ry="0.56665" fill="url(#paint23_linear_35_193)"/>
<ellipse cx="51.6214" cy="52.0784" rx="0.549488" ry="0.56665" fill="url(#paint24_linear_35_193)"/>
<ellipse cx="53.2702" cy="53.7783" rx="0.549488" ry="0.56665" fill="url(#paint25_linear_35_193)"/>
<ellipse cx="51.0723" cy="48.6784" rx="0.549488" ry="0.56665" fill="url(#paint26_linear_35_193)"/>
<ellipse cx="51.6214" cy="41.8787" rx="0.549488" ry="0.56665" fill="url(#paint27_linear_35_193)"/>
<ellipse cx="54.7439" cy="41.274" rx="0.549488" ry="0.56665" fill="url(#paint28_linear_35_193)"/>
<ellipse cx="56.5668" cy="40.1787" rx="0.549488" ry="0.56665" fill="url(#paint29_linear_35_193)"/>
<ellipse cx="60.9627" cy="37.3455" rx="0.549488" ry="0.56665" fill="url(#paint30_linear_35_193)"/>
<ellipse cx="49.4235" cy="40.1787" rx="0.549488" ry="0.56665" fill="url(#paint31_linear_35_193)"/>
<ellipse cx="51.6214" cy="39.0455" rx="0.549488" ry="0.56665" fill="url(#paint32_linear_35_193)"/>
<ellipse cx="55.4679" cy="36.7789" rx="0.549488" ry="0.56665" fill="url(#paint33_linear_35_193)"/>
<ellipse cx="57.666" cy="34.5122" rx="0.549488" ry="0.56665" fill="url(#paint34_linear_35_193)"/>
<ellipse cx="58.2156" cy="33.379" rx="0.549488" ry="0.56665" fill="url(#paint35_linear_35_193)"/>
<ellipse cx="48.3248" cy="38.4788" rx="0.549488" ry="0.56665" fill="url(#paint36_linear_35_193)"/>
<ellipse cx="51.0723" cy="35.079" rx="0.549488" ry="0.56665" fill="url(#paint37_linear_35_193)"/>
<ellipse cx="53.2702" cy="32.2457" rx="0.549488" ry="0.56665" fill="url(#paint38_linear_35_193)"/>
<ellipse cx="53.8192" cy="31.1124" rx="0.549488" ry="0.56665" fill="url(#paint39_linear_35_193)"/>
<ellipse cx="54.9184" cy="28.8457" rx="0.549488" ry="0.56665" fill="url(#paint40_linear_35_193)"/>
<ellipse cx="45.5773" cy="37.3455" rx="0.549488" ry="0.56665" fill="url(#paint41_linear_35_193)"/>
<ellipse cx="46.1266" cy="35.079" rx="0.549488" ry="0.56665" fill="url(#paint42_linear_35_193)"/>
<ellipse cx="48.3248" cy="31.679" rx="0.549488" ry="0.56665" fill="url(#paint43_linear_35_193)"/>
<ellipse cx="50.5224" cy="28.2791" rx="0.549488" ry="0.56665" fill="url(#paint44_linear_35_193)"/>
<ellipse cx="43.9289" cy="34.5122" rx="0.549488" ry="0.56665" fill="url(#paint45_linear_35_193)"/>
<ellipse cx="44.478" cy="29.979" rx="0.549488" ry="0.56665" fill="url(#paint46_linear_35_193)"/>
<ellipse cx="45.5773" cy="27.7125" rx="0.549488" ry="0.56665" fill="url(#paint47_linear_35_193)"/>
<ellipse cx="46.676" cy="23.7458" rx="0.549488" ry="0.56665" fill="url(#paint48_linear_35_193)"/>
<ellipse cx="46.1266" cy="20.9126" rx="0.549488" ry="0.56665" fill="url(#paint49_linear_35_193)"/>
<ellipse cx="33.4886" cy="39.0455" rx="0.549488" ry="0.56665" fill="url(#paint50_linear_35_193)"/>
<ellipse cx="32.3895" cy="38.4788" rx="0.549488" ry="0.56665" fill="url(#paint51_linear_35_193)"/>
<ellipse cx="30.741" cy="37.9122" rx="0.549488" ry="0.56665" fill="url(#paint52_linear_35_193)"/>
<ellipse cx="29.0928" cy="37.9122" rx="0.549488" ry="0.56665" fill="url(#paint53_linear_35_193)"/>
<ellipse cx="26.8949" cy="36.7789" rx="0.549488" ry="0.56665" fill="url(#paint54_linear_35_193)"/>
<ellipse cx="24.6967" cy="36.2122" rx="0.549488" ry="0.56665" fill="url(#paint55_linear_35_193)"/>
<ellipse cx="24.1473" cy="35.079" rx="0.549488" ry="0.56665" fill="url(#paint56_linear_35_193)"/>
<ellipse cx="21.9494" cy="33.9456" rx="0.549488" ry="0.56665" fill="url(#paint57_linear_35_193)"/>
<ellipse cx="19.7515" cy="35.6455" rx="0.549488" ry="0.56665" fill="url(#paint58_linear_35_193)"/>
<ellipse cx="18.1027" cy="32.8123" rx="0.549488" ry="0.56665" fill="url(#paint59_linear_35_193)"/>
<ellipse cx="15.905" cy="32.2457" rx="0.549488" ry="0.56665" fill="url(#paint60_linear_35_193)"/>
<ellipse cx="15.3551" cy="33.9456" rx="0.549488" ry="0.56665" fill="url(#paint61_linear_35_193)"/>
<ellipse cx="20.3006" cy="29.979" rx="0.549488" ry="0.56665" fill="url(#paint62_linear_35_193)"/>
<ellipse cx="24.6967" cy="32.2457" rx="0.549488" ry="0.56665" fill="url(#paint63_linear_35_193)"/>
<ellipse cx="27.444" cy="33.9456" rx="0.549488" ry="0.56665" fill="url(#paint64_linear_35_193)"/>
<ellipse cx="30.741" cy="33.9456" rx="0.549488" ry="0.56665" fill="url(#paint65_linear_35_193)"/>
<ellipse cx="36.2363" cy="36.7789" rx="0.549488" ry="0.56665" fill="url(#paint66_linear_35_193)"/>
<ellipse cx="34.5872" cy="31.679" rx="0.549488" ry="0.56665" fill="url(#paint67_linear_35_193)"/>
<ellipse cx="31.84" cy="28.8457" rx="0.549488" ry="0.56665" fill="url(#paint68_linear_35_193)"/>
<ellipse cx="30.741" cy="26.0125" rx="0.549488" ry="0.56665" fill="url(#paint69_linear_35_193)"/>
<ellipse cx="27.9936" cy="23.1793" rx="0.549488" ry="0.56665" fill="url(#paint70_linear_35_193)"/>
<ellipse cx="26.3451" cy="22.6125" rx="0.549488" ry="0.56665" fill="url(#paint71_linear_35_193)"/>
<ellipse cx="25.7956" cy="20.9126" rx="0.549488" ry="0.56665" fill="url(#paint72_linear_35_193)"/>
<ellipse cx="36.7854" cy="31.1124" rx="0.549488" ry="0.56665" fill="url(#paint73_linear_35_193)"/>
<ellipse cx="35.6863" cy="28.2791" rx="0.549488" ry="0.56665" fill="url(#paint74_linear_35_193)"/>
<ellipse cx="34.038" cy="25.4459" rx="0.549488" ry="0.56665" fill="url(#paint75_linear_35_193)"/>
<ellipse cx="31.84" cy="21.4792" rx="0.549488" ry="0.56665" fill="url(#paint76_linear_35_193)"/>
<ellipse cx="37.3349" cy="33.9456" rx="0.549488" ry="0.56665" fill="url(#paint77_linear_35_193)"/>
<ellipse cx="39.5329" cy="33.9456" rx="0.549488" ry="0.56665" fill="url(#paint78_linear_35_193)"/>
<ellipse cx="41.1813" cy="35.6455" rx="0.549488" ry="0.56665" fill="url(#paint79_linear_35_193)"/>
<ellipse cx="42.8299" cy="31.679" rx="0.549488" ry="0.56665" fill="url(#paint80_linear_35_193)"/>
<ellipse cx="42.8299" cy="28.2791" rx="0.549488" ry="0.56665" fill="url(#paint81_linear_35_193)"/>
<ellipse cx="42.2801" cy="24.3124" rx="0.549488" ry="0.56665" fill="url(#paint82_linear_35_193)"/>
<ellipse cx="41.1813" cy="32.2457" rx="0.549488" ry="0.56665" fill="url(#paint83_linear_35_193)"/>
<ellipse cx="43.3791" cy="22.6125" rx="0.549488" ry="0.56665" fill="url(#paint84_linear_35_193)"/>
<ellipse cx="41.1813" cy="27.1457" rx="0.549488" ry="0.56665" fill="url(#paint85_linear_35_193)"/>
<ellipse cx="39.5329" cy="30.5457" rx="0.549488" ry="0.56665" fill="url(#paint86_linear_35_193)"/>
<ellipse cx="38.4341" cy="29.979" rx="0.549488" ry="0.56665" fill="url(#paint87_linear_35_193)"/>
<ellipse cx="38.4341" cy="23.7458" rx="0.549488" ry="0.56665" fill="url(#paint88_linear_35_193)"/>
<ellipse cx="37.8843" cy="20.9126" rx="0.549488" ry="0.56665" fill="url(#paint89_linear_35_193)"/>
<ellipse cx="32.3895" cy="33.9456" rx="0.549488" ry="0.56665" fill="url(#paint90_linear_35_193)"/>
<ellipse cx="31.84" cy="32.2457" rx="0.549488" ry="0.56665" fill="url(#paint91_linear_35_193)"/>
<ellipse cx="29.0928" cy="28.8457" rx="0.549488" ry="0.56665" fill="url(#paint92_linear_35_193)"/>
<ellipse cx="26.8949" cy="26.5791" rx="0.549488" ry="0.56665" fill="url(#paint93_linear_35_193)"/>
<ellipse cx="28.543" cy="31.679" rx="0.549488" ry="0.56665" fill="url(#paint94_linear_35_193)"/>
<ellipse cx="27.444" cy="30.5457" rx="0.549488" ry="0.56665" fill="url(#paint95_linear_35_193)"/>
<ellipse cx="24.1473" cy="28.2791" rx="0.549488" ry="0.56665" fill="url(#paint96_linear_35_193)"/>
<ellipse cx="20.3006" cy="26.0125" rx="0.549488" ry="0.56665" fill="url(#paint97_linear_35_193)"/>
<ellipse cx="17.0038" cy="28.8457" rx="0.549488" ry="0.56665" fill="url(#paint98_linear_35_193)"/>
<ellipse cx="13.1573" cy="32.2457" rx="0.549488" ry="0.56665" fill="url(#paint99_linear_35_193)"/>
<ellipse cx="24.1473" cy="51.5118" rx="0.549488" ry="0.56665" fill="url(#paint100_linear_35_193)"/>
<defs>
<linearGradient id="paint0_linear_35_193" x1="29.0928" y1="46.4119" x2="29.0928" y2="47.5452" gradientUnits="userSpaceOnUse">
<stop stop-color="#EFB89E"/>
<stop offset="1" stop-color="#996C50"/>
</linearGradient>
<linearGradient id="paint1_linear_35_193" x1="27.9936" y1="46.9786" x2="27.9936" y2="48.1119" gradientUnits="userSpaceOnUse">
<stop stop-color="#EFB89E"/>
<stop offset="1" stop-color="#996C50"/>
</linearGradient>
<linearGradient id="paint2_linear_35_193" x1="26.8949" y1="46.4119" x2="26.8949" y2="47.5452" gradientUnits="userSpaceOnUse">
<stop stop-color="#EFB89E"/>
<stop offset="1" stop-color="#996C50"/>
</linearGradient>
<linearGradient id="paint3_linear_35_193" x1="23.5976" y1="45.8452" x2="23.5976" y2="46.9785" gradientUnits="userSpaceOnUse">
<stop stop-color="#EFB89E"/>
<stop offset="1" stop-color="#996C50"/>
</linearGradient>
<linearGradient id="paint4_linear_35_193" x1="29.0928" y1="49.2451" x2="29.0928" y2="50.3784" gradientUnits="userSpaceOnUse">
<stop stop-color="#EFB89E"/>
<stop offset="1" stop-color="#996C50"/>
</linearGradient>
<linearGradient id="paint5_linear_35_193" x1="26.3451" y1="48.6784" x2="26.3451" y2="49.8117" gradientUnits="userSpaceOnUse">
<stop stop-color="#EFB89E"/>
<stop offset="1" stop-color="#996C50"/>
</linearGradient>
<linearGradient id="paint6_linear_35_193" x1="28.543" y1="51.5117" x2="28.543" y2="52.645" gradientUnits="userSpaceOnUse">
<stop stop-color="#EFB89E"/>
<stop offset="1" stop-color="#996C50"/>
</linearGradient>
<linearGradient id="paint7_linear_35_193" x1="25.2461" y1="53.2117" x2="25.2461" y2="54.345" gradientUnits="userSpaceOnUse">
<stop stop-color="#EFB89E"/>
<stop offset="1" stop-color="#996C50"/>
</linearGradient>
<linearGradient id="paint8_linear_35_193" x1="25.2461" y1="54.9117" x2="25.2461" y2="56.045" gradientUnits="userSpaceOnUse">
<stop stop-color="#EFB89E"/>
<stop offset="1" stop-color="#996C50"/>
</linearGradient>
<linearGradient id="paint9_linear_35_193" x1="27.444" y1="54.9117" x2="27.444" y2="56.045" gradientUnits="userSpaceOnUse">
<stop stop-color="#EFB89E"/>
<stop offset="1" stop-color="#996C50"/>
</linearGradient>
<linearGradient id="paint10_linear_35_193" x1="29.0928" y1="54.345" x2="29.0928" y2="55.4783" gradientUnits="userSpaceOnUse">
<stop stop-color="#EFB89E"/>
<stop offset="1" stop-color="#996C50"/>
</linearGradient>
<linearGradient id="paint11_linear_35_193" x1="29.6419" y1="52.645" x2="29.6419" y2="53.7783" gradientUnits="userSpaceOnUse">
<stop stop-color="#EFB89E"/>
<stop offset="1" stop-color="#996C50"/>
</linearGradient>
<linearGradient id="paint12_linear_35_193" x1="31.2906" y1="55.4783" x2="31.2906" y2="56.6116" gradientUnits="userSpaceOnUse">
<stop stop-color="#EFB89E"/>
<stop offset="1" stop-color="#996C50"/>
</linearGradient>
<linearGradient id="paint13_linear_35_193" x1="30.1916" y1="56.6116" x2="30.1916" y2="57.7449" gradientUnits="userSpaceOnUse">
<stop stop-color="#EFB89E"/>
<stop offset="1" stop-color="#996C50"/>
</linearGradient>
<linearGradient id="paint14_linear_35_193" x1="32.3895" y1="58.8781" x2="32.3895" y2="60.0114" gradientUnits="userSpaceOnUse">
<stop stop-color="#EFB89E"/>
<stop offset="1" stop-color="#996C50"/>
</linearGradient>
<linearGradient id="paint15_linear_35_193" x1="38.9834" y1="60.0115" x2="38.9834" y2="61.1448" gradientUnits="userSpaceOnUse">
<stop stop-color="#EFB89E"/>
<stop offset="1" stop-color="#996C50"/>
</linearGradient>
<linearGradient id="paint16_linear_35_193" x1="39.5329" y1="58.3115" x2="39.5329" y2="59.4448" gradientUnits="userSpaceOnUse">
<stop stop-color="#EFB89E"/>
<stop offset="1" stop-color="#996C50"/>
</linearGradient>
<linearGradient id="paint17_linear_35_193" x1="35.6863" y1="58.3115" x2="35.6863" y2="59.4448" gradientUnits="userSpaceOnUse">
<stop stop-color="#EFB89E"/>
<stop offset="1" stop-color="#996C50"/>
</linearGradient>
<linearGradient id="paint18_linear_35_193" x1="44.478" y1="57.7449" x2="44.478" y2="58.8782" gradientUnits="userSpaceOnUse">
<stop stop-color="#EFB89E"/>
<stop offset="1" stop-color="#996C50"/>
</linearGradient>
<linearGradient id="paint19_linear_35_193" x1="42.2801" y1="57.7449" x2="42.2801" y2="58.8782" gradientUnits="userSpaceOnUse">
<stop stop-color="#EFB89E"/>
<stop offset="1" stop-color="#996C50"/>
</linearGradient>
<linearGradient id="paint20_linear_35_193" x1="46.1266" y1="60.0115" x2="46.1266" y2="61.1448" gradientUnits="userSpaceOnUse">
<stop stop-color="#EFB89E"/>
<stop offset="1" stop-color="#996C50"/>
</linearGradient>
<linearGradient id="paint21_linear_35_193" x1="47.2256" y1="56.6116" x2="47.2256" y2="57.7449" gradientUnits="userSpaceOnUse">
<stop stop-color="#EFB89E"/>
<stop offset="1" stop-color="#996C50"/>
</linearGradient>
<linearGradient id="paint22_linear_35_193" x1="48.8743" y1="57.1783" x2="48.8743" y2="58.3116" gradientUnits="userSpaceOnUse">
<stop stop-color="#EFB89E"/>
<stop offset="1" stop-color="#996C50"/>
</linearGradient>
<linearGradient id="paint23_linear_35_193" x1="51.0723" y1="54.9117" x2="51.0723" y2="56.045" gradientUnits="userSpaceOnUse">
<stop stop-color="#EFB89E"/>
<stop offset="1" stop-color="#996C50"/>
</linearGradient>
<linearGradient id="paint24_linear_35_193" x1="51.6214" y1="51.5117" x2="51.6214" y2="52.645" gradientUnits="userSpaceOnUse">
<stop stop-color="#EFB89E"/>
<stop offset="1" stop-color="#996C50"/>
</linearGradient>
<linearGradient id="paint25_linear_35_193" x1="53.2702" y1="53.2117" x2="53.2702" y2="54.345" gradientUnits="userSpaceOnUse">
<stop stop-color="#EFB89E"/>
<stop offset="1" stop-color="#996C50"/>
</linearGradient>
<linearGradient id="paint26_linear_35_193" x1="51.0723" y1="48.1118" x2="51.0723" y2="49.2451" gradientUnits="userSpaceOnUse">
<stop stop-color="#EFB89E"/>
<stop offset="1" stop-color="#996C50"/>
</linearGradient>
<linearGradient id="paint27_linear_35_193" x1="51.6214" y1="41.312" x2="51.6214" y2="42.4453" gradientUnits="userSpaceOnUse">
<stop stop-color="#EFB89E"/>
<stop offset="1" stop-color="#996C50"/>
</linearGradient>
<linearGradient id="paint28_linear_35_193" x1="54.7439" y1="40.7074" x2="54.7439" y2="41.8407" gradientUnits="userSpaceOnUse">
<stop stop-color="#EFB89E"/>
<stop offset="1" stop-color="#996C50"/>
</linearGradient>
<linearGradient id="paint29_linear_35_193" x1="56.5668" y1="39.6121" x2="56.5668" y2="40.7454" gradientUnits="userSpaceOnUse">
<stop stop-color="#EFB89E"/>
<stop offset="1" stop-color="#996C50"/>
</linearGradient>
<linearGradient id="paint30_linear_35_193" x1="60.9627" y1="36.7789" x2="60.9627" y2="37.9122" gradientUnits="userSpaceOnUse">
<stop stop-color="#EFB89E"/>
<stop offset="1" stop-color="#996C50"/>
</linearGradient>
<linearGradient id="paint31_linear_35_193" x1="49.4235" y1="39.6121" x2="49.4235" y2="40.7454" gradientUnits="userSpaceOnUse">
<stop stop-color="#EFB89E"/>
<stop offset="1" stop-color="#996C50"/>
</linearGradient>
<linearGradient id="paint32_linear_35_193" x1="51.6214" y1="38.4788" x2="51.6214" y2="39.6121" gradientUnits="userSpaceOnUse">
<stop stop-color="#EFB89E"/>
<stop offset="1" stop-color="#996C50"/>
</linearGradient>
<linearGradient id="paint33_linear_35_193" x1="55.4679" y1="36.2122" x2="55.4679" y2="37.3455" gradientUnits="userSpaceOnUse">
<stop stop-color="#EFB89E"/>
<stop offset="1" stop-color="#996C50"/>
</linearGradient>
<linearGradient id="paint34_linear_35_193" x1="57.666" y1="33.9456" x2="57.666" y2="35.0789" gradientUnits="userSpaceOnUse">
<stop stop-color="#EFB89E"/>
<stop offset="1" stop-color="#996C50"/>
</linearGradient>
<linearGradient id="paint35_linear_35_193" x1="58.2156" y1="32.8123" x2="58.2156" y2="33.9456" gradientUnits="userSpaceOnUse">
<stop stop-color="#EFB89E"/>
<stop offset="1" stop-color="#996C50"/>
</linearGradient>
<linearGradient id="paint36_linear_35_193" x1="48.3248" y1="37.9122" x2="48.3248" y2="39.0455" gradientUnits="userSpaceOnUse">
<stop stop-color="#EFB89E"/>
<stop offset="1" stop-color="#996C50"/>
</linearGradient>
<linearGradient id="paint37_linear_35_193" x1="51.0723" y1="34.5123" x2="51.0723" y2="35.6456" gradientUnits="userSpaceOnUse">
<stop stop-color="#EFB89E"/>
<stop offset="1" stop-color="#996C50"/>
</linearGradient>
<linearGradient id="paint38_linear_35_193" x1="53.2702" y1="31.679" x2="53.2702" y2="32.8123" gradientUnits="userSpaceOnUse">
<stop stop-color="#EFB89E"/>
<stop offset="1" stop-color="#996C50"/>
</linearGradient>
<linearGradient id="paint39_linear_35_193" x1="53.8192" y1="30.5457" x2="53.8192" y2="31.679" gradientUnits="userSpaceOnUse">
<stop stop-color="#EFB89E"/>
<stop offset="1" stop-color="#996C50"/>
</linearGradient>
<linearGradient id="paint40_linear_35_193" x1="54.9184" y1="28.2791" x2="54.9184" y2="29.4124" gradientUnits="userSpaceOnUse">
<stop stop-color="#EFB89E"/>
<stop offset="1" stop-color="#996C50"/>
</linearGradient>
<linearGradient id="paint41_linear_35_193" x1="45.5773" y1="36.7789" x2="45.5773" y2="37.9122" gradientUnits="userSpaceOnUse">
<stop stop-color="#EFB89E"/>
<stop offset="1" stop-color="#996C50"/>
</linearGradient>
<linearGradient id="paint42_linear_35_193" x1="46.1266" y1="34.5123" x2="46.1266" y2="35.6456" gradientUnits="userSpaceOnUse">
<stop stop-color="#EFB89E"/>
<stop offset="1" stop-color="#996C50"/>
</linearGradient>
<linearGradient id="paint43_linear_35_193" x1="48.3248" y1="31.1123" x2="48.3248" y2="32.2456" gradientUnits="userSpaceOnUse">
<stop stop-color="#EFB89E"/>
<stop offset="1" stop-color="#996C50"/>
</linearGradient>
<linearGradient id="paint44_linear_35_193" x1="50.5224" y1="27.7125" x2="50.5224" y2="28.8458" gradientUnits="userSpaceOnUse">
<stop stop-color="#EFB89E"/>
<stop offset="1" stop-color="#996C50"/>
</linearGradient>
<linearGradient id="paint45_linear_35_193" x1="43.9289" y1="33.9456" x2="43.9289" y2="35.0789" gradientUnits="userSpaceOnUse">
<stop stop-color="#EFB89E"/>
<stop offset="1" stop-color="#996C50"/>
</linearGradient>
<linearGradient id="paint46_linear_35_193" x1="44.478" y1="29.4124" x2="44.478" y2="30.5457" gradientUnits="userSpaceOnUse">
<stop stop-color="#EFB89E"/>
<stop offset="1" stop-color="#996C50"/>
</linearGradient>
<linearGradient id="paint47_linear_35_193" x1="45.5773" y1="27.1458" x2="45.5773" y2="28.2791" gradientUnits="userSpaceOnUse">
<stop stop-color="#EFB89E"/>
<stop offset="1" stop-color="#996C50"/>
</linearGradient>
<linearGradient id="paint48_linear_35_193" x1="46.676" y1="23.1792" x2="46.676" y2="24.3125" gradientUnits="userSpaceOnUse">
<stop stop-color="#EFB89E"/>
<stop offset="1" stop-color="#996C50"/>
</linearGradient>
<linearGradient id="paint49_linear_35_193" x1="46.1266" y1="20.3459" x2="46.1266" y2="21.4792" gradientUnits="userSpaceOnUse">
<stop stop-color="#EFB89E"/>
<stop offset="1" stop-color="#996C50"/>
</linearGradient>
<linearGradient id="paint50_linear_35_193" x1="33.4886" y1="38.4788" x2="33.4886" y2="39.6121" gradientUnits="userSpaceOnUse">
<stop stop-color="#EFB89E"/>
<stop offset="1" stop-color="#996C50"/>
</linearGradient>
<linearGradient id="paint51_linear_35_193" x1="32.3895" y1="37.9122" x2="32.3895" y2="39.0455" gradientUnits="userSpaceOnUse">
<stop stop-color="#EFB89E"/>
<stop offset="1" stop-color="#996C50"/>
</linearGradient>
<linearGradient id="paint52_linear_35_193" x1="30.741" y1="37.3455" x2="30.741" y2="38.4788" gradientUnits="userSpaceOnUse">
<stop stop-color="#EFB89E"/>
<stop offset="1" stop-color="#996C50"/>
</linearGradient>
<linearGradient id="paint53_linear_35_193" x1="29.0928" y1="37.3455" x2="29.0928" y2="38.4788" gradientUnits="userSpaceOnUse">
<stop stop-color="#EFB89E"/>
<stop offset="1" stop-color="#996C50"/>
</linearGradient>
<linearGradient id="paint54_linear_35_193" x1="26.8949" y1="36.2122" x2="26.8949" y2="37.3455" gradientUnits="userSpaceOnUse">
<stop stop-color="#EFB89E"/>
<stop offset="1" stop-color="#996C50"/>
</linearGradient>
<linearGradient id="paint55_linear_35_193" x1="24.6967" y1="35.6455" x2="24.6967" y2="36.7788" gradientUnits="userSpaceOnUse">
<stop stop-color="#EFB89E"/>
<stop offset="1" stop-color="#996C50"/>
</linearGradient>
<linearGradient id="paint56_linear_35_193" x1="24.1473" y1="34.5123" x2="24.1473" y2="35.6456" gradientUnits="userSpaceOnUse">
<stop stop-color="#EFB89E"/>
<stop offset="1" stop-color="#996C50"/>
</linearGradient>
<linearGradient id="paint57_linear_35_193" x1="21.9494" y1="33.3789" x2="21.9494" y2="34.5122" gradientUnits="userSpaceOnUse">
<stop stop-color="#EFB89E"/>
<stop offset="1" stop-color="#996C50"/>
</linearGradient>
<linearGradient id="paint58_linear_35_193" x1="19.7515" y1="35.0789" x2="19.7515" y2="36.2122" gradientUnits="userSpaceOnUse">
<stop stop-color="#EFB89E"/>
<stop offset="1" stop-color="#996C50"/>
</linearGradient>
<linearGradient id="paint59_linear_35_193" x1="18.1027" y1="32.2457" x2="18.1027" y2="33.379" gradientUnits="userSpaceOnUse">
<stop stop-color="#EFB89E"/>
<stop offset="1" stop-color="#996C50"/>
</linearGradient>
<linearGradient id="paint60_linear_35_193" x1="15.905" y1="31.679" x2="15.905" y2="32.8123" gradientUnits="userSpaceOnUse">
<stop stop-color="#EFB89E"/>
<stop offset="1" stop-color="#996C50"/>
</linearGradient>
<linearGradient id="paint61_linear_35_193" x1="15.3551" y1="33.3789" x2="15.3551" y2="34.5122" gradientUnits="userSpaceOnUse">
<stop stop-color="#EFB89E"/>
<stop offset="1" stop-color="#996C50"/>
</linearGradient>
<linearGradient id="paint62_linear_35_193" x1="20.3006" y1="29.4124" x2="20.3006" y2="30.5457" gradientUnits="userSpaceOnUse">
<stop stop-color="#EFB89E"/>
<stop offset="1" stop-color="#996C50"/>
</linearGradient>
<linearGradient id="paint63_linear_35_193" x1="24.6967" y1="31.679" x2="24.6967" y2="32.8123" gradientUnits="userSpaceOnUse">
<stop stop-color="#EFB89E"/>
<stop offset="1" stop-color="#996C50"/>
</linearGradient>
<linearGradient id="paint64_linear_35_193" x1="27.444" y1="33.3789" x2="27.444" y2="34.5122" gradientUnits="userSpaceOnUse">
<stop stop-color="#EFB89E"/>
<stop offset="1" stop-color="#996C50"/>
</linearGradient>
<linearGradient id="paint65_linear_35_193" x1="30.741" y1="33.3789" x2="30.741" y2="34.5122" gradientUnits="userSpaceOnUse">
<stop stop-color="#EFB89E"/>
<stop offset="1" stop-color="#996C50"/>
</linearGradient>
<linearGradient id="paint66_linear_35_193" x1="36.2363" y1="36.2122" x2="36.2363" y2="37.3455" gradientUnits="userSpaceOnUse">
<stop stop-color="#EFB89E"/>
<stop offset="1" stop-color="#996C50"/>
</linearGradient>
<linearGradient id="paint67_linear_35_193" x1="34.5872" y1="31.1123" x2="34.5872" y2="32.2456" gradientUnits="userSpaceOnUse">
<stop stop-color="#EFB89E"/>
<stop offset="1" stop-color="#996C50"/>
</linearGradient>
<linearGradient id="paint68_linear_35_193" x1="31.84" y1="28.2791" x2="31.84" y2="29.4124" gradientUnits="userSpaceOnUse">
<stop stop-color="#EFB89E"/>
<stop offset="1" stop-color="#996C50"/>
</linearGradient>
<linearGradient id="paint69_linear_35_193" x1="30.741" y1="25.4458" x2="30.741" y2="26.5791" gradientUnits="userSpaceOnUse">
<stop stop-color="#EFB89E"/>
<stop offset="1" stop-color="#996C50"/>
</linearGradient>
<linearGradient id="paint70_linear_35_193" x1="27.9936" y1="22.6126" x2="27.9936" y2="23.7459" gradientUnits="userSpaceOnUse">
<stop stop-color="#EFB89E"/>
<stop offset="1" stop-color="#996C50"/>
</linearGradient>
<linearGradient id="paint71_linear_35_193" x1="26.3451" y1="22.0459" x2="26.3451" y2="23.1792" gradientUnits="userSpaceOnUse">
<stop stop-color="#EFB89E"/>
<stop offset="1" stop-color="#996C50"/>
</linearGradient>
<linearGradient id="paint72_linear_35_193" x1="25.7956" y1="20.3459" x2="25.7956" y2="21.4792" gradientUnits="userSpaceOnUse">
<stop stop-color="#EFB89E"/>
<stop offset="1" stop-color="#996C50"/>
</linearGradient>
<linearGradient id="paint73_linear_35_193" x1="36.7854" y1="30.5457" x2="36.7854" y2="31.679" gradientUnits="userSpaceOnUse">
<stop stop-color="#EFB89E"/>
<stop offset="1" stop-color="#996C50"/>
</linearGradient>
<linearGradient id="paint74_linear_35_193" x1="35.6863" y1="27.7125" x2="35.6863" y2="28.8458" gradientUnits="userSpaceOnUse">
<stop stop-color="#EFB89E"/>
<stop offset="1" stop-color="#996C50"/>
</linearGradient>
<linearGradient id="paint75_linear_35_193" x1="34.038" y1="24.8792" x2="34.038" y2="26.0125" gradientUnits="userSpaceOnUse">
<stop stop-color="#EFB89E"/>
<stop offset="1" stop-color="#996C50"/>
</linearGradient>
<linearGradient id="paint76_linear_35_193" x1="31.84" y1="20.9126" x2="31.84" y2="22.0459" gradientUnits="userSpaceOnUse">
<stop stop-color="#EFB89E"/>
<stop offset="1" stop-color="#996C50"/>
</linearGradient>
<linearGradient id="paint77_linear_35_193" x1="37.3349" y1="33.3789" x2="37.3349" y2="34.5122" gradientUnits="userSpaceOnUse">
<stop stop-color="#EFB89E"/>
<stop offset="1" stop-color="#996C50"/>
</linearGradient>
<linearGradient id="paint78_linear_35_193" x1="39.5329" y1="33.3789" x2="39.5329" y2="34.5122" gradientUnits="userSpaceOnUse">
<stop stop-color="#EFB89E"/>
<stop offset="1" stop-color="#996C50"/>
</linearGradient>
<linearGradient id="paint79_linear_35_193" x1="41.1813" y1="35.0789" x2="41.1813" y2="36.2122" gradientUnits="userSpaceOnUse">
<stop stop-color="#EFB89E"/>
<stop offset="1" stop-color="#996C50"/>
</linearGradient>
<linearGradient id="paint80_linear_35_193" x1="42.8299" y1="31.1123" x2="42.8299" y2="32.2456" gradientUnits="userSpaceOnUse">
<stop stop-color="#EFB89E"/>
<stop offset="1" stop-color="#996C50"/>
</linearGradient>
<linearGradient id="paint81_linear_35_193" x1="42.8299" y1="27.7125" x2="42.8299" y2="28.8458" gradientUnits="userSpaceOnUse">
<stop stop-color="#EFB89E"/>
<stop offset="1" stop-color="#996C50"/>
</linearGradient>
<linearGradient id="paint82_linear_35_193" x1="42.2801" y1="23.7458" x2="42.2801" y2="24.8791" gradientUnits="userSpaceOnUse">
<stop stop-color="#EFB89E"/>
<stop offset="1" stop-color="#996C50"/>
</linearGradient>
<linearGradient id="paint83_linear_35_193" x1="41.1813" y1="31.679" x2="41.1813" y2="32.8123" gradientUnits="userSpaceOnUse">
<stop stop-color="#EFB89E"/>
<stop offset="1" stop-color="#996C50"/>
</linearGradient>
<linearGradient id="paint84_linear_35_193" x1="43.3791" y1="22.0459" x2="43.3791" y2="23.1792" gradientUnits="userSpaceOnUse">
<stop stop-color="#EFB89E"/>
<stop offset="1" stop-color="#996C50"/>
</linearGradient>
<linearGradient id="paint85_linear_35_193" x1="41.1813" y1="26.579" x2="41.1813" y2="27.7123" gradientUnits="userSpaceOnUse">
<stop stop-color="#EFB89E"/>
<stop offset="1" stop-color="#996C50"/>
</linearGradient>
<linearGradient id="paint86_linear_35_193" x1="39.5329" y1="29.9791" x2="39.5329" y2="31.1124" gradientUnits="userSpaceOnUse">
<stop stop-color="#EFB89E"/>
<stop offset="1" stop-color="#996C50"/>
</linearGradient>
<linearGradient id="paint87_linear_35_193" x1="38.4341" y1="29.4124" x2="38.4341" y2="30.5457" gradientUnits="userSpaceOnUse">
<stop stop-color="#EFB89E"/>
<stop offset="1" stop-color="#996C50"/>
</linearGradient>
<linearGradient id="paint88_linear_35_193" x1="38.4341" y1="23.1792" x2="38.4341" y2="24.3125" gradientUnits="userSpaceOnUse">
<stop stop-color="#EFB89E"/>
<stop offset="1" stop-color="#996C50"/>
</linearGradient>
<linearGradient id="paint89_linear_35_193" x1="37.8843" y1="20.3459" x2="37.8843" y2="21.4792" gradientUnits="userSpaceOnUse">
<stop stop-color="#EFB89E"/>
<stop offset="1" stop-color="#996C50"/>
</linearGradient>
<linearGradient id="paint90_linear_35_193" x1="32.3895" y1="33.3789" x2="32.3895" y2="34.5122" gradientUnits="userSpaceOnUse">
<stop stop-color="#EFB89E"/>
<stop offset="1" stop-color="#996C50"/>
</linearGradient>
<linearGradient id="paint91_linear_35_193" x1="31.84" y1="31.679" x2="31.84" y2="32.8123" gradientUnits="userSpaceOnUse">
<stop stop-color="#EFB89E"/>
<stop offset="1" stop-color="#996C50"/>
</linearGradient>
<linearGradient id="paint92_linear_35_193" x1="29.0928" y1="28.2791" x2="29.0928" y2="29.4124" gradientUnits="userSpaceOnUse">
<stop stop-color="#EFB89E"/>
<stop offset="1" stop-color="#996C50"/>
</linearGradient>
<linearGradient id="paint93_linear_35_193" x1="26.8949" y1="26.0125" x2="26.8949" y2="27.1458" gradientUnits="userSpaceOnUse">
<stop stop-color="#EFB89E"/>
<stop offset="1" stop-color="#996C50"/>
</linearGradient>
<linearGradient id="paint94_linear_35_193" x1="28.543" y1="31.1123" x2="28.543" y2="32.2456" gradientUnits="userSpaceOnUse">
<stop stop-color="#EFB89E"/>
<stop offset="1" stop-color="#996C50"/>
</linearGradient>
<linearGradient id="paint95_linear_35_193" x1="27.444" y1="29.9791" x2="27.444" y2="31.1124" gradientUnits="userSpaceOnUse">
<stop stop-color="#EFB89E"/>
<stop offset="1" stop-color="#996C50"/>
</linearGradient>
<linearGradient id="paint96_linear_35_193" x1="24.1473" y1="27.7125" x2="24.1473" y2="28.8458" gradientUnits="userSpaceOnUse">
<stop stop-color="#EFB89E"/>
<stop offset="1" stop-color="#996C50"/>
</linearGradient>
<linearGradient id="paint97_linear_35_193" x1="20.3006" y1="25.4458" x2="20.3006" y2="26.5791" gradientUnits="userSpaceOnUse">
<stop stop-color="#EFB89E"/>
<stop offset="1" stop-color="#996C50"/>
</linearGradient>
<linearGradient id="paint98_linear_35_193" x1="17.0038" y1="28.2791" x2="17.0038" y2="29.4124" gradientUnits="userSpaceOnUse">
<stop stop-color="#EFB89E"/>
<stop offset="1" stop-color="#996C50"/>
</linearGradient>
<linearGradient id="paint99_linear_35_193" x1="13.1573" y1="31.679" x2="13.1573" y2="32.8123" gradientUnits="userSpaceOnUse">
<stop stop-color="#EFB89E"/>
<stop offset="1" stop-color="#996C50"/>
</linearGradient>
<linearGradient id="paint100_linear_35_193" x1="24.1473" y1="50.9451" x2="24.1473" y2="52.0784" gradientUnits="userSpaceOnUse">
<stop stop-color="#EFB89E"/>
<stop offset="1" stop-color="#996C50"/>
</linearGradient>
</defs>
</svg>
